<svg width="19" height="19" viewBox="0 0 19 19" fill="none" xmlns="http://www.w3.org/2000/svg">
<path d="M15.9467 13.3683C15.9065 13.4354 15.8535 13.4938 15.7907 13.5404C15.7279 13.5869 15.6565 13.6206 15.5807 13.6395C15.5048 13.6584 15.426 13.6621 15.3487 13.6505C15.2714 13.6388 15.1972 13.612 15.1302 13.5716L10.0938 10.5487V16.0312C10.0938 16.1887 10.0312 16.3397 9.91986 16.4511C9.80851 16.5624 9.65749 16.625 9.50002 16.625C9.34254 16.625 9.19152 16.5624 9.08017 16.4511C8.96882 16.3397 8.90627 16.1887 8.90627 16.0312V10.5487L3.8683 13.5716C3.80141 13.6127 3.72704 13.6402 3.64948 13.6523C3.57193 13.6645 3.49273 13.6611 3.41648 13.6425C3.34022 13.6239 3.26842 13.5903 3.20523 13.5437C3.14204 13.4971 3.08871 13.4385 3.04833 13.3712C3.00794 13.3038 2.98131 13.2292 2.96997 13.1515C2.95863 13.0738 2.96281 12.9947 2.98226 12.9186C3.00171 12.8426 3.03605 12.7711 3.08329 12.7084C3.13053 12.6457 3.18973 12.593 3.25748 12.5534L8.34591 9.5L3.25748 6.44664C3.18973 6.40697 3.13053 6.35427 3.08329 6.29157C3.03605 6.22888 3.00171 6.15743 2.98226 6.08138C2.96281 6.00533 2.95863 5.92617 2.96997 5.84849C2.98131 5.77082 3.00794 5.69616 3.04833 5.62884C3.08871 5.56152 3.14204 5.50288 3.20523 5.4563C3.26842 5.40973 3.34022 5.37615 3.41648 5.3575C3.49273 5.33886 3.57193 5.33552 3.64948 5.34769C3.72704 5.35985 3.80141 5.38727 3.8683 5.42836L8.90627 8.45129V2.96875C8.90627 2.81128 8.96882 2.66026 9.08017 2.54891C9.19152 2.43756 9.34254 2.375 9.50002 2.375C9.65749 2.375 9.80851 2.43756 9.91986 2.54891C10.0312 2.66026 10.0938 2.81128 10.0938 2.96875V8.45129L15.1317 5.42836C15.1986 5.38727 15.273 5.35985 15.3505 5.34769C15.4281 5.33552 15.5073 5.33886 15.5836 5.3575C15.6598 5.37615 15.7316 5.40973 15.7948 5.4563C15.858 5.50288 15.9113 5.56152 15.9517 5.62884C15.9921 5.69616 16.0187 5.77082 16.0301 5.84849C16.0414 5.92617 16.0372 6.00533 16.0178 6.08138C15.9983 6.15743 15.964 6.22888 15.9167 6.29157C15.8695 6.35427 15.8103 6.40697 15.7426 6.44664L10.6541 9.5L15.7426 12.5534C15.8095 12.5934 15.8679 12.6463 15.9144 12.709C15.9609 12.7716 15.9945 12.8428 16.0135 12.9185C16.0325 12.9942 16.0363 13.0729 16.0248 13.1501C16.0134 13.2272 15.9868 13.3014 15.9467 13.3683Z" fill="#222222"/>
</svg>
