<svg width="29" height="29" viewBox="0 0 29 29" fill="none" xmlns="http://www.w3.org/2000/svg">
<path d="M15.625 14.5C15.625 14.7225 15.559 14.94 15.4354 15.125C15.3118 15.31 15.1361 15.4542 14.9305 15.5394C14.725 15.6245 14.4988 15.6468 14.2805 15.6034C14.0623 15.56 13.8618 15.4528 13.7045 15.2955C13.5472 15.1382 13.44 14.9377 13.3966 14.7195C13.3532 14.5012 13.3755 14.275 13.4606 14.0695C13.5458 13.8639 13.69 13.6882 13.875 13.5646C14.06 13.441 14.2775 13.375 14.5 13.375C14.7984 13.375 15.0845 13.4935 15.2955 13.7045C15.5065 13.9155 15.625 14.2016 15.625 14.5ZM20.875 13.375C20.6525 13.375 20.435 13.441 20.25 13.5646C20.065 13.6882 19.9208 13.8639 19.8356 14.0695C19.7505 14.275 19.7282 14.5012 19.7716 14.7195C19.815 14.9377 19.9222 15.1382 20.0795 15.2955C20.2368 15.4528 20.4373 15.56 20.6555 15.6034C20.8738 15.6468 21.1 15.6245 21.3055 15.5394C21.5111 15.4542 21.6868 15.31 21.8104 15.125C21.934 14.94 22 14.7225 22 14.5C22 14.2016 21.8815 13.9155 21.6705 13.7045C21.4595 13.4935 21.1734 13.375 20.875 13.375ZM8.125 13.375C7.9025 13.375 7.68499 13.441 7.49998 13.5646C7.31498 13.6882 7.17078 13.8639 7.08564 14.0695C7.00049 14.275 6.97821 14.5012 7.02162 14.7195C7.06503 14.9377 7.17217 15.1382 7.32951 15.2955C7.48684 15.4528 7.6873 15.56 7.90552 15.6034C8.12375 15.6468 8.34995 15.6245 8.55552 15.5394C8.76109 15.4542 8.93679 15.31 9.0604 15.125C9.18402 14.94 9.25 14.7225 9.25 14.5C9.25 14.2016 9.13147 13.9155 8.9205 13.7045C8.70952 13.4935 8.42337 13.375 8.125 13.375Z" fill="#222222"/>
</svg>
